# xmcd
#
# Track frame offsets:
#	150
#	12682
#	27910
#	38555
#	53132
#	66825
#	77697
#	92405
#	107677
#	123230
#	135567
#	147562
#	160705
#	173027
#	185467
#	195935
#	212525
#	223780
#	238110
#	252437
#	265665
#	278230
#	292487
#	308330
#	317285
#
# Disc length: 4378
#
# Revision: 1
# Processed by: cddbd v1.5.1PL0 Copyright (c) Steve Scherf et al.
# Submitted via: ExactAudioCopy v0.95a5
# Normalized: r0:TDELIM( - )
#
DISCID=60111819
DTITLE=Frank Sinatra, Dean Martin and Sammy Davis Jr. - The Ratpack CD 2
DYEAR=1999
DGENRE=
TTITLE0=Sammy Davis Jr. - What I've Got In Mind
TTITLE1=Sammy Davis Jr. - Come Sundown
TTITLE2=Sammy Davis Jr. - Mention a Mansion
TTITLE3=Sammy Davis Jr. - You're Gonna Love Yourself
TTITLE4=Sammy Davis Jr. - Smoke, Smoke, Smoke
TTITLE5=Sammy Davis Jr. - Oh Lonesome Me
TTITLE6=Sammy Davis Jr. - We Could Have Been The Closest Of Friends
TTITLE7=Sammy Davis Jr. - Hey Won't You Play
TTITLE8=Sammy Davis Jr. - Please Don't Tell Me How The Story Ends
TTITLE9=Sammy Davis Jr. - The River's Too Wide
TTITLE10=Dean Martin and Sammy Davis Jr. - Sam's Song
TTITLE11=Dean Martin - The Door Is Still Open To My Heart
TTITLE12=Dean Martin - From The Bottom Of My Heart
TTITLE13=Dean Martin - Corrine, Corrina
TTITLE14=Dean Martin - Ain't Gonna Try Anymore
TTITLE15=Dean Martin - Detroit City
TTITLE16=Dean Martin - Born To Lose
TTITLE17=Dean Martin - My Heart Cries For You
TTITLE18=Dean Martin - Green, Green Grass Of Home
TTITLE19=Frank Sinatra - You Make Me Feel So Young
TTITLE20=Frank Sinatra - Just One Of Those Things
TTITLE21=Frank Sinatra - Begin The Beguine
TTITLE22=Frank Sinatra - Ol' Man River
TTITLE23=Frank Sinatra - For You
TTITLE24=Frank Sinatra - Night And Day
EXTD=
EXTT0=
EXTT1=
EXTT2=
EXTT3=
EXTT4=
EXTT5=
EXTT6=
EXTT7=
EXTT8=
EXTT9=
EXTT10=
EXTT11=
EXTT12=
EXTT13=
EXTT14=
EXTT15=
EXTT16=
EXTT17=
EXTT18=
EXTT19=
EXTT20=
EXTT21=
EXTT22=
EXTT23=
EXTT24=
PLAYORDER=
